<svg width="21" height="26" viewBox="0 0 21 26" fill="none" xmlns="http://www.w3.org/2000/svg">
<path fill-rule="evenodd" clip-rule="evenodd" d="M13.65 0H3.14999C2.31533 0.00249279 1.51556 0.335166 0.925364 0.925364C0.335166 1.51556 0.00249279 2.31533 0 3.14999L0 17.8394C0.00249279 18.6741 0.335166 19.4739 0.925364 20.0641C1.51556 20.6543 2.31533 20.9869 3.14999 20.9894H13.65C14.4846 20.9869 15.2844 20.6543 15.8746 20.0641C16.4648 19.4739 16.7974 18.6741 16.7999 17.8394V3.14999C16.7974 2.31533 16.4648 1.51556 15.8746 0.925364C15.2844 0.335166 14.4846 0.00249279 13.65 0ZM14.6999 17.8394C14.6956 18.1166 14.5836 18.3811 14.3876 18.5771C14.1916 18.7731 13.9271 18.8851 13.65 18.8894H3.14999C2.87286 18.8851 2.6083 18.7731 2.41232 18.5771C2.21634 18.3811 2.10432 18.1166 2.09999 17.8394V3.14999C2.10432 2.87286 2.21634 2.6083 2.41232 2.41232C2.6083 2.21634 2.87286 2.10432 3.14999 2.09999H13.65C14.2264 2.10944 14.6905 2.57354 14.6999 3.14999V17.8394Z" fill="white"/>
<path fill-rule="evenodd" clip-rule="evenodd" d="M20.9999 7.34998V22.0499C20.9974 22.8846 20.6647 23.6844 20.0745 24.2746C19.4843 24.8648 18.6846 25.1974 17.8499 25.1999H5.24995C4.97147 25.1999 4.7044 25.0893 4.50749 24.8924C4.31058 24.6955 4.19995 24.4284 4.19995 24.1499C4.19995 23.8714 4.31058 23.6044 4.50749 23.4075C4.7044 23.2106 4.97147 23.0999 5.24995 23.0999H17.8499C18.127 23.0956 18.3916 22.9836 18.5876 22.7876C18.7836 22.5916 18.8956 22.3271 18.8999 22.0499V7.34998C18.8999 7.07151 19.0105 6.80444 19.2074 6.60752C19.4043 6.41061 19.6714 6.29999 19.9499 6.29999C20.2284 6.29999 20.4954 6.41061 20.6924 6.60752C20.8893 6.80444 20.9999 7.07151 20.9999 7.34998Z" fill="white"/>
<path d="M8.39985 16.7999C8.97975 16.7999 9.44985 16.3298 9.44985 15.7499C9.44985 15.1701 8.97975 14.7 8.39985 14.7C7.81995 14.7 7.34985 15.1701 7.34985 15.7499C7.34985 16.3298 7.81995 16.7999 8.39985 16.7999Z" fill="white"/>
<path fill-rule="evenodd" clip-rule="evenodd" d="M12.5999 8.39994C12.6007 9.33089 12.2915 10.2356 11.7211 10.9714C11.1508 11.7071 10.3517 12.2321 9.44993 12.4634V12.5999C9.44993 12.8784 9.33931 13.1455 9.1424 13.3424C8.94548 13.5393 8.67841 13.6499 8.39994 13.6499C8.12146 13.6499 7.85439 13.5393 7.65748 13.3424C7.46056 13.1455 7.34994 12.8784 7.34994 12.5999V11.5499C7.34994 11.2714 7.46056 11.0044 7.65748 10.8075C7.85439 10.6106 8.12146 10.4999 8.39994 10.4999C8.81528 10.4999 9.22129 10.3768 9.56663 10.146C9.91197 9.91527 10.1811 9.58729 10.3401 9.20357C10.499 8.81985 10.5406 8.39761 10.4596 7.99025C10.3786 7.58289 10.1785 7.20871 9.88486 6.91502C9.59117 6.62133 9.21698 6.42132 8.80962 6.34029C8.40227 6.25927 7.98003 6.30085 7.5963 6.4598C7.21258 6.61874 6.88461 6.8879 6.65386 7.23324C6.42311 7.57859 6.29994 7.9846 6.29994 8.39994C6.29994 8.67841 6.18932 8.94548 5.99241 9.1424C5.79549 9.33931 5.52842 9.44993 5.24995 9.44993C4.97147 9.44993 4.7044 9.33931 4.50749 9.1424C4.31058 8.94548 4.19995 8.67841 4.19995 8.39994C4.19995 7.28603 4.64245 6.21775 5.4301 5.4301C6.21775 4.64245 7.28603 4.19995 8.39994 4.19995C9.51384 4.19995 10.5821 4.64245 11.3698 5.4301C12.1574 6.21775 12.5999 7.28603 12.5999 8.39994Z" fill="white"/>
</svg>
