<svg width="24" height="24" viewBox="0 0 24 24" fill="none" xmlns="http://www.w3.org/2000/svg">
<path d="M3.44444 12H1L12 1L23 12H20.5556" stroke="white" stroke-width="2" stroke-linecap="round" stroke-linejoin="round"/>
<path d="M3.44446 12V20.5556C3.44446 21.2039 3.702 21.8256 4.16042 22.284C4.61884 22.7425 5.2406 23 5.8889 23H18.1111C18.7594 23 19.3812 22.7425 19.8396 22.284C20.298 21.8256 20.5556 21.2039 20.5556 20.5556V12" stroke="white" stroke-width="2" stroke-linecap="round" stroke-linejoin="round"/>
<path d="M8.33325 23V15.6667C8.33325 15.0184 8.59079 14.3966 9.04921 13.9382C9.50764 13.4798 10.1294 13.2222 10.7777 13.2222H13.2221C13.8704 13.2222 14.4922 13.4798 14.9506 13.9382C15.409 14.3966 15.6666 15.0184 15.6666 15.6667V23" stroke="white" stroke-width="2" stroke-linecap="round" stroke-linejoin="round"/>
</svg>
