<svg width="24" height="23" viewBox="0 0 24 23" fill="none" xmlns="http://www.w3.org/2000/svg">
<path d="M1 22V19C1 16.7909 2.79086 15 5 15H11C13.2091 15 15 16.7909 15 19V22" stroke="white" stroke-width="2" stroke-linecap="round"/>
<path d="M18.5 15H19C21.2091 15 23 16.7909 23 19V22" stroke="white" stroke-width="2" stroke-linecap="round"/>
<circle cx="8" cy="6" r="5" stroke="white" stroke-width="2"/>
<mask id="path-4-inside-1_4_1180" fill="white">
<path d="M16 0.8994C16 0.402675 16.4049 -0.00689697 16.896 0.0672846C17.3757 0.139729 17.8459 0.27024 18.2961 0.456723C19.0241 0.758251 19.6855 1.20021 20.2426 1.75736C20.7998 2.31451 21.2417 2.97595 21.5433 3.7039C21.8448 4.43185 22 5.21207 22 6C22 6.78793 21.8448 7.56815 21.5433 8.2961C21.2417 9.02405 20.7998 9.68549 20.2426 10.2426C19.6855 10.7998 19.0241 11.2417 18.2961 11.5433C17.8459 11.7298 17.3757 11.8603 16.896 11.9327C16.4049 12.0069 16 11.5973 16 11.1006C16 10.6039 16.4072 10.2108 16.8925 10.1053C17.1366 10.0522 17.3759 9.97742 17.6077 9.8814C18.1174 9.67027 18.5806 9.36082 18.9707 8.9707C19.3608 8.58058 19.6703 8.11744 19.8814 7.60773C20.0925 7.09802 20.2012 6.55171 20.2012 6C20.2012 5.44829 20.0925 4.90198 19.8814 4.39227C19.6703 3.88256 19.3608 3.41942 18.9707 3.0293C18.5806 2.63918 18.1174 2.32973 17.6077 2.1186C17.3759 2.02258 17.1366 1.94776 16.8925 1.89471C16.4072 1.78918 16 1.39612 16 0.8994Z"/>
</mask>
<path d="M16 0.8994C16 0.402675 16.4049 -0.00689697 16.896 0.0672846C17.3757 0.139729 17.8459 0.27024 18.2961 0.456723C19.0241 0.758251 19.6855 1.20021 20.2426 1.75736C20.7998 2.31451 21.2417 2.97595 21.5433 3.7039C21.8448 4.43185 22 5.21207 22 6C22 6.78793 21.8448 7.56815 21.5433 8.2961C21.2417 9.02405 20.7998 9.68549 20.2426 10.2426C19.6855 10.7998 19.0241 11.2417 18.2961 11.5433C17.8459 11.7298 17.3757 11.8603 16.896 11.9327C16.4049 12.0069 16 11.5973 16 11.1006C16 10.6039 16.4072 10.2108 16.8925 10.1053C17.1366 10.0522 17.3759 9.97742 17.6077 9.8814C18.1174 9.67027 18.5806 9.36082 18.9707 8.9707C19.3608 8.58058 19.6703 8.11744 19.8814 7.60773C20.0925 7.09802 20.2012 6.55171 20.2012 6C20.2012 5.44829 20.0925 4.90198 19.8814 4.39227C19.6703 3.88256 19.3608 3.41942 18.9707 3.0293C18.5806 2.63918 18.1174 2.32973 17.6077 2.1186C17.3759 2.02258 17.1366 1.94776 16.8925 1.89471C16.4072 1.78918 16 1.39612 16 0.8994Z" stroke="white" stroke-width="4" mask="url(#path-4-inside-1_4_1180)"/>
</svg>
