<svg width="22" height="24" viewBox="0 0 22 24" fill="none" xmlns="http://www.w3.org/2000/svg">
<path fill-rule="evenodd" clip-rule="evenodd" d="M11.0002 0C9.1299 0 7.58365 0.17971 6.39371 0.398724L6.25573 0.423996C5.22201 0.612759 4.36282 0.769663 3.69101 1.67228C3.26018 2.25113 3.12117 2.87672 3.08912 3.57555L2.58563 3.75865C2.11173 3.93094 1.69637 4.08195 1.36684 4.24918C1.01059 4.42998 0.684121 4.66285 0.434538 5.04061C0.184966 5.41837 0.0857002 5.8299 0.0411375 6.25575C-7.9288e-05 6.64969 -3.83519e-05 7.12731 2.57837e-06 7.67223L1.28248e-05 7.83435C2.59227e-06 8.28288 -7.68103e-06 8.67904 0.0303421 9.01037C0.0632398 9.36947 0.136085 9.71856 0.318061 10.0559C0.500037 10.3933 0.7444 10.6323 1.01617 10.8381C1.26693 11.0279 1.58437 11.2203 1.9438 11.4381L4.64638 13.0761C5.19833 14.2607 5.95653 15.3168 6.99925 16.0798C7.90691 16.7439 8.99626 17.1608 10.2866 17.2722C10.2517 17.3679 10.2326 17.4722 10.2326 17.5814V19.5349H8.76911C7.91552 19.5349 7.18059 20.1921 7.01318 21.1053L6.78946 22.3256H4.86047C4.43662 22.3256 4.09303 22.7004 4.09303 23.1628C4.09303 23.6252 4.43662 24 4.86047 24H17.1395C17.5634 24 17.907 23.6252 17.907 23.1628C17.907 22.7004 17.5634 22.3256 17.1395 22.3256H15.2106L14.9868 21.1053C14.8194 20.1921 14.0845 19.5349 13.2309 19.5349H11.7674V17.5814C11.7674 17.4722 11.7483 17.3679 11.7134 17.2722C13.0038 17.1609 14.0933 16.744 15.001 16.0798C16.0438 15.3168 16.8022 14.2605 17.3541 13.0758L20.0561 11.4381C20.4156 11.2203 20.733 11.0279 20.9838 10.8381C21.2556 10.6323 21.4999 10.3933 21.6819 10.0559C21.8639 9.71856 21.9368 9.36947 21.9696 9.01037C22 8.67906 22 8.28293 22 7.83443V7.67225C22 7.12731 22 6.64969 21.9589 6.25575C21.9143 5.8299 21.815 5.41837 21.5654 5.04061C21.3159 4.66285 20.9893 4.42998 20.6331 4.24918C20.3035 4.08195 19.8882 3.93094 19.4143 3.75865L18.9112 3.57569C18.8792 2.8768 18.7402 2.25118 18.3093 1.67228C17.6375 0.769663 16.7783 0.612759 15.7446 0.423996L15.6066 0.398724C14.4167 0.17971 12.8704 0 11.0002 0ZM13.6453 22.3256L13.4817 21.4337C13.4579 21.3032 13.3529 21.2093 13.2309 21.2093H8.76911C8.64717 21.2093 8.54218 21.3032 8.51827 21.4337L8.35474 22.3256H13.6453ZM3.10915 5.33327L3.12308 5.3282C3.19632 7.02528 3.37204 8.90094 3.80956 10.6534L2.71909 9.99248C2.32089 9.75117 2.07155 9.59895 1.89128 9.46246C1.72509 9.33664 1.67096 9.26246 1.64093 9.20678C1.61089 9.1511 1.57773 9.06345 1.55761 8.84387C1.5358 8.60568 1.53491 8.29398 1.5349 7.79703V7.71607C1.53488 7.1143 1.53602 6.7333 1.56613 6.44564C1.59398 6.17939 1.63958 6.08041 1.67972 6.01965C1.71986 5.95889 1.79152 5.8804 2.01425 5.76737C2.25487 5.64525 2.58585 5.52356 3.10915 5.33327ZM18.8772 5.32834C18.804 7.02529 18.6283 8.90081 18.1908 10.6532L19.2809 9.99248C19.6791 9.75117 19.9284 9.59895 20.1087 9.46246C20.2749 9.33664 20.329 9.26246 20.359 9.20678C20.3891 9.1511 20.4222 9.06345 20.4423 8.84387C20.4642 8.60568 20.465 8.29398 20.4651 7.79703V7.71607C20.4651 7.1143 20.4639 6.7333 20.4338 6.44564C20.406 6.17939 20.3604 6.08041 20.3202 6.01965C20.2801 5.95889 20.2085 5.8804 19.9857 5.76737C19.7451 5.64525 19.4141 5.52356 18.8908 5.33327L18.8772 5.32834ZM6.64908 2.04981C7.75954 1.84542 9.22036 1.67442 11.0002 1.67442C12.78 1.67442 14.2408 1.84542 15.3513 2.04981C16.5863 2.27712 16.8457 2.36216 17.1177 2.72772C17.3858 3.08799 17.4113 3.42872 17.3563 4.94146C17.2646 7.46274 16.9596 10.1835 16.0155 12.2527C15.5494 13.2741 14.94 14.1083 14.1461 14.6891C13.3573 15.2663 12.3396 15.6279 11.0002 15.6279C9.66066 15.6279 8.64299 15.2663 7.8542 14.6891C7.06029 14.1083 6.45093 13.2741 5.98486 12.2527C5.04066 10.1835 4.73578 7.46274 4.64403 4.94146C4.58898 3.42872 4.61444 3.08799 4.88258 2.72772C5.15466 2.36216 5.41409 2.27712 6.64908 2.04981Z" fill="white"/>
</svg>
