<svg width="24" height="27" viewBox="0 0 24 27" fill="none" xmlns="http://www.w3.org/2000/svg">
<path d="M12 9.44058V1M12 9.44058C10.6499 9.44058 9.55556 10.5203 9.55556 11.8522M12 9.44058C13.3501 9.44058 14.4444 10.5203 14.4444 11.8522M12 1C5.92487 1 1 5.85869 1 11.8522M12 1C18.0752 1 23 5.85869 23 11.8522M13.7283 10.1468L19.7781 4.17847M14.4444 11.8522H23M14.4444 11.8522C14.4444 13.1841 13.3501 14.2638 12 14.2638M23 11.8522C23 17.8457 18.0752 22.7043 12 22.7043M13.7286 13.5573L19.7782 19.5257M12 14.2638V22.7043M12 14.2638C10.6499 14.2638 9.55556 13.1841 9.55556 11.8522M12 22.7043C5.92487 22.7043 1 17.8457 1 11.8522M10.2717 13.5575L4.22191 19.5259M9.55556 11.8522H1M10.2714 10.1471L4.22177 4.17861" stroke="white" stroke-width="1.5" stroke-linecap="round" stroke-linejoin="round"/>
<path fill-rule="evenodd" clip-rule="evenodd" d="M12.0004 20.8957L6.44336 27H17.5574L12.0004 20.8957ZM12.0004 22.9259L9.52637 25.6435H14.4743L12.0004 22.9259Z" fill="white"/>
</svg>
